<svg xmlns="http://www.w3.org/2000/svg" viewBox="0 0 434 98" role="img" aria-label="TERMIC">
  <title>TERMIC</title>
  <style>
    rect { fill: #1b1b1b; }
    @media (prefers-color-scheme: dark) { rect { fill: #ededed; } }
  </style>
    <rect x="8" y="8" width="10" height="10" rx="2"/>
    <rect x="20" y="8" width="10" height="10" rx="2"/>
    <rect x="32" y="8" width="10" height="10" rx="2"/>
    <rect x="44" y="8" width="10" height="10" rx="2"/>
    <rect x="56" y="8" width="10" height="10" rx="2"/>
    <rect x="32" y="20" width="10" height="10" rx="2"/>
    <rect x="32" y="32" width="10" height="10" rx="2"/>
    <rect x="32" y="44" width="10" height="10" rx="2"/>
    <rect x="32" y="56" width="10" height="10" rx="2"/>
    <rect x="32" y="68" width="10" height="10" rx="2"/>
    <rect x="32" y="80" width="10" height="10" rx="2"/>
    <rect x="80" y="8" width="10" height="10" rx="2"/>
    <rect x="92" y="8" width="10" height="10" rx="2"/>
    <rect x="104" y="8" width="10" height="10" rx="2"/>
    <rect x="116" y="8" width="10" height="10" rx="2"/>
    <rect x="128" y="8" width="10" height="10" rx="2"/>
    <rect x="80" y="20" width="10" height="10" rx="2"/>
    <rect x="80" y="32" width="10" height="10" rx="2"/>
    <rect x="80" y="44" width="10" height="10" rx="2"/>
    <rect x="92" y="44" width="10" height="10" rx="2"/>
    <rect x="104" y="44" width="10" height="10" rx="2"/>
    <rect x="116" y="44" width="10" height="10" rx="2"/>
    <rect x="80" y="56" width="10" height="10" rx="2"/>
    <rect x="80" y="68" width="10" height="10" rx="2"/>
    <rect x="80" y="80" width="10" height="10" rx="2"/>
    <rect x="92" y="80" width="10" height="10" rx="2"/>
    <rect x="104" y="80" width="10" height="10" rx="2"/>
    <rect x="116" y="80" width="10" height="10" rx="2"/>
    <rect x="128" y="80" width="10" height="10" rx="2"/>
    <rect x="152" y="8" width="10" height="10" rx="2"/>
    <rect x="164" y="8" width="10" height="10" rx="2"/>
    <rect x="176" y="8" width="10" height="10" rx="2"/>
    <rect x="188" y="8" width="10" height="10" rx="2"/>
    <rect x="152" y="20" width="10" height="10" rx="2"/>
    <rect x="200" y="20" width="10" height="10" rx="2"/>
    <rect x="152" y="32" width="10" height="10" rx="2"/>
    <rect x="200" y="32" width="10" height="10" rx="2"/>
    <rect x="152" y="44" width="10" height="10" rx="2"/>
    <rect x="164" y="44" width="10" height="10" rx="2"/>
    <rect x="176" y="44" width="10" height="10" rx="2"/>
    <rect x="188" y="44" width="10" height="10" rx="2"/>
    <rect x="152" y="56" width="10" height="10" rx="2"/>
    <rect x="176" y="56" width="10" height="10" rx="2"/>
    <rect x="152" y="68" width="10" height="10" rx="2"/>
    <rect x="188" y="68" width="10" height="10" rx="2"/>
    <rect x="152" y="80" width="10" height="10" rx="2"/>
    <rect x="200" y="80" width="10" height="10" rx="2"/>
    <rect x="224" y="8" width="10" height="10" rx="2"/>
    <rect x="272" y="8" width="10" height="10" rx="2"/>
    <rect x="224" y="20" width="10" height="10" rx="2"/>
    <rect x="236" y="20" width="10" height="10" rx="2"/>
    <rect x="260" y="20" width="10" height="10" rx="2"/>
    <rect x="272" y="20" width="10" height="10" rx="2"/>
    <rect x="224" y="32" width="10" height="10" rx="2"/>
    <rect x="248" y="32" width="10" height="10" rx="2"/>
    <rect x="272" y="32" width="10" height="10" rx="2"/>
    <rect x="224" y="44" width="10" height="10" rx="2"/>
    <rect x="248" y="44" width="10" height="10" rx="2"/>
    <rect x="272" y="44" width="10" height="10" rx="2"/>
    <rect x="224" y="56" width="10" height="10" rx="2"/>
    <rect x="272" y="56" width="10" height="10" rx="2"/>
    <rect x="224" y="68" width="10" height="10" rx="2"/>
    <rect x="272" y="68" width="10" height="10" rx="2"/>
    <rect x="224" y="80" width="10" height="10" rx="2"/>
    <rect x="272" y="80" width="10" height="10" rx="2"/>
    <rect x="296" y="8" width="10" height="10" rx="2"/>
    <rect x="308" y="8" width="10" height="10" rx="2"/>
    <rect x="320" y="8" width="10" height="10" rx="2"/>
    <rect x="332" y="8" width="10" height="10" rx="2"/>
    <rect x="344" y="8" width="10" height="10" rx="2"/>
    <rect x="320" y="20" width="10" height="10" rx="2"/>
    <rect x="320" y="32" width="10" height="10" rx="2"/>
    <rect x="320" y="44" width="10" height="10" rx="2"/>
    <rect x="320" y="56" width="10" height="10" rx="2"/>
    <rect x="320" y="68" width="10" height="10" rx="2"/>
    <rect x="296" y="80" width="10" height="10" rx="2"/>
    <rect x="308" y="80" width="10" height="10" rx="2"/>
    <rect x="320" y="80" width="10" height="10" rx="2"/>
    <rect x="332" y="80" width="10" height="10" rx="2"/>
    <rect x="344" y="80" width="10" height="10" rx="2"/>
    <rect x="380" y="8" width="10" height="10" rx="2"/>
    <rect x="392" y="8" width="10" height="10" rx="2"/>
    <rect x="404" y="8" width="10" height="10" rx="2"/>
    <rect x="416" y="8" width="10" height="10" rx="2"/>
    <rect x="368" y="20" width="10" height="10" rx="2"/>
    <rect x="368" y="32" width="10" height="10" rx="2"/>
    <rect x="368" y="44" width="10" height="10" rx="2"/>
    <rect x="368" y="56" width="10" height="10" rx="2"/>
    <rect x="368" y="68" width="10" height="10" rx="2"/>
    <rect x="380" y="80" width="10" height="10" rx="2"/>
    <rect x="392" y="80" width="10" height="10" rx="2"/>
    <rect x="404" y="80" width="10" height="10" rx="2"/>
    <rect x="416" y="80" width="10" height="10" rx="2"/>
</svg>
